<?xml version='1.0' encoding='UTF-8'?>
<svg xmlns="http://www.w3.org/2000/svg" xmlns:xlink="http://www.w3.org/1999/xlink" width="500pt" height="185pt" viewBox="50 50 500 185" overflow="hidden"><clipPath id="diagram-clip"><rect x="50" y="50" width="500" height="185" /></clipPath><defs>
<g>
<g id="glyph-0-0">
<path d="M 3.71875 -7.5625 L 0.765625 -6.359375 L 0.765625 -6.078125 C 0.875 -6.109375 0.96875 -6.140625 1 -6.15625 C 1.3125 -6.265625 1.609375 -6.34375 1.765625 -6.34375 C 2.0625 -6.34375 2.1875 -6.109375 2.1875 -5.59375 L 2.1875 -1.359375 C 2.1875 -0.46875 1.953125 -0.28125 0.78125 -0.265625 L 0.78125 0 L 5.1875 0 L 5.1875 -0.265625 C 4.125 -0.28125 3.921875 -0.453125 3.921875 -1.296875 L 3.921875 -7.5625 Z M 3.71875 -7.5625 " />
</g>
<g id="glyph-0-1">
<path d="M 2.9375 -7.5625 C 2.171875 -7.5625 1.390625 -7.078125 0.921875 -6.28125 C 0.546875 -5.671875 0.28125 -4.640625 0.28125 -3.734375 C 0.28125 -1.46875 1.390625 0.140625 2.953125 0.140625 C 4.46875 0.140625 5.59375 -1.5 5.59375 -3.703125 C 5.59375 -5.90625 4.453125 -7.5625 2.9375 -7.5625 Z M 3.734375 -2.4375 C 3.734375 -1.796875 3.640625 -0.9375 3.53125 -0.640625 C 3.40625 -0.3125 3.21875 -0.171875 2.953125 -0.171875 C 2.359375 -0.171875 2.140625 -0.8125 2.140625 -2.4375 L 2.140625 -4.953125 C 2.140625 -6.609375 2.359375 -7.25 2.921875 -7.25 C 3.5 -7.25 3.734375 -6.5625 3.734375 -4.953125 Z M 3.734375 -2.4375 " />
</g>
<g id="glyph-0-2">
<path d="M 0.359375 0.140625 C 2.015625 -0.078125 2.8125 -0.34375 3.71875 -1 C 4.921875 -1.84375 5.5625 -3.015625 5.5625 -4.421875 C 5.5625 -6.3125 4.484375 -7.5625 2.828125 -7.5625 C 1.359375 -7.5625 0.3125 -6.46875 0.3125 -4.96875 C 0.3125 -3.671875 1.15625 -2.796875 2.4375 -2.796875 C 2.890625 -2.796875 3.203125 -2.84375 3.515625 -3 C 3.015625 -1.328125 2.0625 -0.46875 0.359375 -0.140625 Z M 3.625 -3.609375 C 3.625 -3.453125 3.609375 -3.40625 3.578125 -3.390625 C 3.484375 -3.328125 3.265625 -3.28125 3.09375 -3.28125 C 2.359375 -3.28125 2.09375 -3.9375 2.09375 -5.65625 C 2.09375 -6.9375 2.234375 -7.265625 2.8125 -7.265625 C 3.109375 -7.265625 3.296875 -7.140625 3.4375 -6.890625 C 3.609375 -6.578125 3.71875 -5.8125 3.71875 -5.03125 C 3.71875 -4.734375 3.703125 -4.375 3.671875 -3.890625 Z M 3.625 -3.609375 " />
</g>
<g id="glyph-1-0">
<path d="M 4 -0.5 C 3.8125 -0.5 3.703125 -0.640625 3.625 -0.953125 C 3.5 -1.390625 3.140625 -2.734375 3.140625 -2.953125 C 3.671875 -3.8125 4.109375 -4.3125 4.328125 -4.3125 C 4.53125 -4.3125 4.6875 -4.109375 4.9375 -4.109375 C 5.1875 -4.109375 5.34375 -4.28125 5.34375 -4.515625 C 5.34375 -4.75 5.140625 -4.9375 4.859375 -4.9375 C 4.328125 -4.9375 3.875 -4.53125 3.046875 -3.328125 L 2.921875 -3.953125 C 2.75 -4.703125 2.625 -4.9375 2.296875 -4.9375 C 2.03125 -4.9375 1.625 -4.828125 0.890625 -4.609375 L 0.765625 -4.5625 L 0.8125 -4.390625 C 1.265625 -4.5 1.375 -4.515625 1.484375 -4.515625 C 1.78125 -4.515625 1.859375 -4.421875 2.015625 -3.75 L 2.375 -2.375 L 1.390625 -1.0625 C 1.140625 -0.734375 0.90625 -0.53125 0.78125 -0.53125 C 0.5625 -0.53125 0.359375 -0.734375 0.078125 -0.734375 C -0.140625 -0.734375 -0.328125 -0.578125 -0.328125 -0.34375 C -0.328125 -0.0625 -0.078125 0.125 0.28125 0.125 C 0.703125 0.125 0.96875 -0.03125 2.46875 -1.96875 L 2.828125 -0.625 C 2.984375 -0.0625 3.140625 0.125 3.515625 0.125 C 3.96875 0.125 4.28125 -0.140625 4.984375 -1.15625 L 4.8125 -1.234375 C 4.21875 -0.625 4.21875 -0.5 4 -0.5 Z M 4 -0.5 " />
</g>
<g id="glyph-1-1">
<path d="M 0.171875 -4.671875 L 0.171875 -4.46875 C 0.328125 -4.515625 0.421875 -4.515625 0.546875 -4.515625 C 1.234375 -4.515625 1.40625 -4.234375 1.96875 -2.3125 C 2.171875 -1.59375 2.453125 -0.28125 2.453125 -0.09375 C 2.453125 0.328125 1.296875 1.6875 0.90625 1.6875 C 0.734375 1.6875 0.453125 1.375 0.171875 1.375 C -0.078125 1.375 -0.28125 1.5625 -0.28125 1.8125 C -0.28125 2.09375 -0.03125 2.296875 0.328125 2.296875 C 1.765625 2.296875 5.09375 -2.890625 5.09375 -4.3125 C 5.09375 -4.65625 4.796875 -4.9375 4.4375 -4.9375 C 4.171875 -4.9375 3.96875 -4.765625 3.96875 -4.515625 C 3.96875 -4.0625 4.625 -4.109375 4.625 -3.703125 C 4.625 -3.25 4.171875 -2.390625 3.15625 -0.8125 L 2.921875 -2.109375 C 2.734375 -3.09375 2.078125 -4.9375 1.890625 -4.9375 C 1.5 -4.90625 1.34375 -4.859375 0.171875 -4.671875 Z M 0.171875 -4.671875 " />
</g>
<g id="glyph-2-0">
<path d="M 3.484375 -7.5625 L 1.328125 -6.546875 L 1.328125 -6.390625 C 1.46875 -6.4375 1.609375 -6.484375 1.65625 -6.515625 C 1.859375 -6.59375 2.078125 -6.640625 2.1875 -6.640625 C 2.4375 -6.640625 2.546875 -6.46875 2.546875 -6.109375 L 2.546875 -1.046875 C 2.546875 -0.671875 2.453125 -0.40625 2.265625 -0.3125 C 2.078125 -0.21875 1.921875 -0.171875 1.40625 -0.171875 L 1.40625 0 L 4.71875 0 L 4.71875 -0.171875 C 3.765625 -0.171875 3.578125 -0.296875 3.578125 -0.828125 L 3.578125 -7.546875 Z M 3.484375 -7.5625 " />
</g>
<g id="glyph-2-1">
<path d="M 2.171875 -6.515625 L 4.515625 -6.515625 C 4.703125 -6.515625 4.75 -6.546875 4.78125 -6.625 L 5.25 -7.625 L 5.140625 -7.703125 C 4.953125 -7.46875 4.828125 -7.40625 4.578125 -7.40625 L 2.078125 -7.40625 L 0.78125 -4.75 C 0.765625 -4.734375 0.765625 -4.71875 0.765625 -4.703125 C 0.765625 -4.640625 0.8125 -4.609375 0.90625 -4.609375 C 1.296875 -4.609375 1.765625 -4.53125 2.265625 -4.390625 C 3.640625 -3.96875 4.265625 -3.28125 4.265625 -2.171875 C 4.265625 -1.09375 3.546875 -0.25 2.609375 -0.25 C 2.375 -0.25 2.171875 -0.328125 1.8125 -0.578125 C 1.421875 -0.84375 1.15625 -0.953125 0.890625 -0.953125 C 0.546875 -0.953125 0.390625 -0.8125 0.390625 -0.53125 C 0.390625 -0.109375 0.953125 0.15625 1.84375 0.15625 C 2.84375 0.15625 3.703125 -0.140625 4.3125 -0.71875 C 4.859375 -1.21875 5.109375 -1.859375 5.109375 -2.703125 C 5.109375 -3.515625 4.890625 -4.03125 4.28125 -4.59375 C 3.765625 -5.078125 3.078125 -5.34375 1.65625 -5.578125 Z M 2.171875 -6.515625 " />
</g>
<g id="glyph-2-2">
<path d="M 6.390625 -4.3125 L 0.359375 -4.3125 L 0.359375 -3.578125 L 6.390625 -3.578125 Z M 6.390625 -2.078125 L 0.359375 -2.078125 L 0.359375 -1.34375 L 6.390625 -1.34375 Z M 6.390625 -2.078125 " />
</g>
<g id="glyph-2-3">
<path d="M 5.6875 -1.53125 L 5.53125 -1.59375 C 5.09375 -0.953125 4.9375 -0.84375 4.390625 -0.84375 L 1.53125 -0.84375 L 3.546875 -2.8125 C 4.609375 -3.859375 5.078125 -4.703125 5.078125 -5.578125 C 5.078125 -6.703125 4.109375 -7.5625 2.859375 -7.5625 C 2.203125 -7.5625 1.578125 -7.3125 1.140625 -6.875 C 0.75 -6.484375 0.578125 -6.125 0.375 -5.34375 L 0.625 -5.28125 C 1.09375 -6.375 1.53125 -6.734375 2.359375 -6.734375 C 3.359375 -6.734375 4.046875 -6.09375 4.046875 -5.15625 C 4.046875 -4.28125 3.5 -3.25 2.484375 -2.25 L 0.359375 -0.140625 L 0.359375 0 L 5.03125 0 Z M 5.6875 -1.53125 " />
</g>
<g id="glyph-2-4">
<path d="M 3.046875 -7.5625 C 2.375 -7.5625 1.875 -7.375 1.4375 -6.984375 C 0.734375 -6.359375 0.28125 -5.0625 0.28125 -3.765625 C 0.28125 -2.546875 0.6875 -1.234375 1.25 -0.609375 C 1.6875 -0.109375 2.296875 0.15625 3 0.15625 C 3.609375 0.15625 4.125 -0.03125 4.546875 -0.421875 C 5.25 -1.046875 5.703125 -2.34375 5.703125 -3.6875 C 5.703125 -5.984375 4.609375 -7.5625 3.046875 -7.5625 Z M 3 -7.265625 C 4.015625 -7.265625 4.546875 -6 4.546875 -3.671875 C 4.546875 -1.328125 4.015625 -0.140625 3 -0.140625 C 1.96875 -0.140625 1.4375 -1.328125 1.4375 -3.65625 C 1.4375 -6.03125 1.96875 -7.265625 3 -7.265625 Z M 3 -7.265625 " />
</g>
<g id="glyph-3-0">
<path d="M 3.984375 -1.078125 L 3.875 -1.109375 C 3.5625 -0.671875 3.453125 -0.59375 3.078125 -0.59375 L 1.078125 -0.59375 L 2.484375 -1.96875 C 3.21875 -2.703125 3.546875 -3.296875 3.546875 -3.90625 C 3.546875 -4.6875 2.875 -5.296875 2 -5.296875 C 1.546875 -5.296875 1.109375 -5.125 0.796875 -4.8125 C 0.53125 -4.546875 0.40625 -4.296875 0.265625 -3.734375 L 0.4375 -3.6875 C 0.765625 -4.46875 1.078125 -4.71875 1.65625 -4.71875 C 2.359375 -4.71875 2.828125 -4.265625 2.828125 -3.609375 C 2.828125 -3 2.453125 -2.265625 1.734375 -1.578125 L 0.25 -0.09375 L 0.25 0 L 3.515625 0 Z M 3.984375 -1.078125 " />
</g>
<g id="glyph-4-0">
<path d="M 0.5625 -3.109375 L 0.5625 -2.484375 L 6.421875 -2.484375 L 6.421875 -3.109375 Z M 0.5625 -3.109375 " />
</g>
<g id="glyph-5-0">
<path d="M 2.984375 -6.8125 L 2.984375 -1.3125 C 2.984375 -0.390625 2.859375 -0.265625 1.875 -0.203125 L 1.875 0 L 5.3125 0 L 5.3125 -0.203125 C 4.34375 -0.25 4.1875 -0.390625 4.1875 -1.203125 L 4.1875 -6.8125 L 4.8125 -6.8125 C 6.15625 -6.8125 6.421875 -6.609375 6.6875 -5.40625 L 6.96875 -5.40625 L 6.890625 -7.265625 L 0.265625 -7.265625 L 0.203125 -5.40625 L 0.484375 -5.40625 C 0.765625 -6.609375 1.03125 -6.8125 2.34375 -6.8125 Z M 2.984375 -6.8125 " />
</g>
<g id="glyph-5-1">
<path d="M 1.84375 -3.765625 C 2.34375 -4.265625 2.6875 -4.453125 3.15625 -4.453125 C 3.734375 -4.453125 4.03125 -4.0625 4.03125 -3.296875 L 4.03125 -1.125 C 4.03125 -0.375 3.90625 -0.234375 3.234375 -0.171875 L 3.234375 0 L 5.71875 0 L 5.71875 -0.171875 C 5.09375 -0.28125 5.015625 -0.359375 5.015625 -1.125 L 5.015625 -3.3125 C 5.015625 -4.453125 4.53125 -5.046875 3.578125 -5.046875 C 2.875 -5.046875 2.390625 -4.796875 1.84375 -4.125 L 1.84375 -7.46875 L 1.78125 -7.5 C 1.390625 -7.375 1.09375 -7.28125 0.4375 -7.109375 L 0.125 -7.015625 L 0.125 -6.84375 C 0.171875 -6.859375 0.203125 -6.859375 0.265625 -6.859375 C 0.765625 -6.859375 0.859375 -6.765625 0.859375 -6.296875 L 0.859375 -1.125 C 0.859375 -0.34375 0.78125 -0.25 0.109375 -0.171875 L 0.109375 0 L 2.640625 0 L 2.640625 -0.171875 C 1.96875 -0.234375 1.84375 -0.359375 1.84375 -1.125 Z M 1.84375 -3.765625 " />
</g>
<g id="glyph-5-2">
<path d="M 4.796875 -1.796875 C 4.234375 -0.96875 3.71875 -0.640625 2.96875 -0.640625 C 2.296875 -0.640625 1.796875 -0.96875 1.453125 -1.59375 C 1.25 -2.015625 1.15625 -2.375 1.140625 -3.046875 L 4.765625 -3.046875 C 4.671875 -3.75 4.546875 -4.078125 4.25 -4.421875 C 3.90625 -4.828125 3.359375 -5.046875 2.75 -5.046875 C 2.15625 -5.046875 1.609375 -4.859375 1.15625 -4.484375 C 0.609375 -4.03125 0.296875 -3.25 0.296875 -2.34375 C 0.296875 -0.828125 1.140625 0.109375 2.484375 0.109375 C 3.609375 0.109375 4.484375 -0.53125 4.984375 -1.71875 Z M 1.15625 -3.390625 C 1.296875 -4.25 1.6875 -4.65625 2.40625 -4.65625 C 3.125 -4.65625 3.40625 -4.34375 3.5625 -3.390625 Z M 1.15625 -3.390625 " />
</g>
<g id="glyph-5-3">
<path d="M 4.046875 0.109375 L 5.765625 -0.46875 L 5.765625 -0.640625 C 5.5625 -0.625 5.53125 -0.625 5.5 -0.625 C 5.078125 -0.625 4.984375 -0.75 4.984375 -1.25 L 4.984375 -7.484375 L 4.921875 -7.5 C 4.359375 -7.3125 3.953125 -7.203125 3.203125 -7.015625 L 3.203125 -6.84375 C 3.296875 -6.859375 3.359375 -6.859375 3.453125 -6.859375 C 3.890625 -6.859375 4 -6.75 4 -6.296875 L 4 -4.578125 C 3.546875 -4.9375 3.234375 -5.046875 2.765625 -5.046875 C 1.40625 -5.046875 0.3125 -3.8125 0.3125 -2.25 C 0.3125 -0.84375 1.203125 0.109375 2.484375 0.109375 C 3.15625 0.109375 3.59375 -0.109375 4 -0.625 L 4 0.078125 Z M 4 -1.125 C 4 -1.046875 3.90625 -0.90625 3.796875 -0.796875 C 3.578125 -0.578125 3.296875 -0.46875 2.953125 -0.46875 C 1.96875 -0.46875 1.328125 -1.34375 1.328125 -2.6875 C 1.328125 -3.9375 1.90625 -4.75 2.796875 -4.75 C 3.421875 -4.75 4 -4.234375 4 -3.640625 Z M 4 -1.125 " />
</g>
<g id="glyph-5-4">
<path d="M 2.0625 -5.046875 L 0.234375 -4.453125 L 0.234375 -4.28125 L 0.328125 -4.296875 C 0.46875 -4.3125 0.625 -4.328125 0.734375 -4.328125 C 1.015625 -4.328125 1.109375 -4.15625 1.109375 -3.671875 L 1.109375 -1.125 C 1.109375 -0.328125 1 -0.203125 0.1875 -0.171875 L 0.1875 0 L 2.96875 0 L 2.96875 -0.171875 C 2.203125 -0.21875 2.109375 -0.328125 2.109375 -1.125 L 2.109375 -5.015625 Z M 1.5 -7.5 C 1.1875 -7.5 0.921875 -7.25 0.921875 -6.9375 C 0.921875 -6.640625 1.171875 -6.375 1.5 -6.375 C 1.84375 -6.375 2.109375 -6.625 2.109375 -6.9375 C 2.109375 -7.25 1.84375 -7.5 1.5 -7.5 Z M 1.5 -7.5 " />
</g>
<g id="glyph-5-5">
<path d="M 5.1875 -0.71875 C 5 -0.578125 4.859375 -0.515625 4.671875 -0.515625 C 4.40625 -0.515625 4.328125 -0.671875 4.328125 -1.15625 L 4.328125 -3.296875 C 4.328125 -3.859375 4.265625 -4.1875 4.09375 -4.453125 C 3.828125 -4.84375 3.328125 -5.046875 2.625 -5.046875 C 1.53125 -5.046875 0.65625 -4.515625 0.65625 -3.828125 C 0.65625 -3.5625 0.890625 -3.34375 1.15625 -3.34375 C 1.4375 -3.34375 1.6875 -3.5625 1.6875 -3.8125 C 1.6875 -3.859375 1.6875 -3.90625 1.671875 -3.984375 C 1.640625 -4.09375 1.640625 -4.171875 1.640625 -4.25 C 1.640625 -4.546875 2.015625 -4.796875 2.484375 -4.796875 C 3.0625 -4.796875 3.375 -4.46875 3.375 -3.875 L 3.375 -3.203125 C 1.5625 -2.53125 1.359375 -2.4375 0.859375 -2.015625 C 0.59375 -1.796875 0.4375 -1.421875 0.4375 -1.0625 C 0.4375 -0.375 0.953125 0.109375 1.671875 0.109375 C 2.1875 0.109375 2.671875 -0.125 3.390625 -0.6875 C 3.4375 -0.125 3.65625 0.109375 4.140625 0.109375 C 4.53125 0.109375 4.78125 -0.015625 5.1875 -0.4375 Z M 3.375 -1.34375 C 3.375 -1.015625 3.3125 -0.90625 3.0625 -0.78125 C 2.78125 -0.625 2.453125 -0.53125 2.203125 -0.53125 C 1.796875 -0.53125 1.46875 -0.90625 1.46875 -1.375 L 1.46875 -1.421875 C 1.46875 -2.0625 1.953125 -2.453125 3.375 -2.9375 Z M 3.375 -1.34375 " />
</g>
<g id="glyph-5-6">
<path d="M 5.515625 -4.265625 L 5.515625 -4.6875 L 4.625 -4.6875 C 4.375 -4.6875 4.203125 -4.71875 3.96875 -4.796875 L 3.71875 -4.890625 C 3.390625 -5 3.078125 -5.046875 2.765625 -5.046875 C 1.6875 -5.046875 0.8125 -4.265625 0.8125 -3.265625 C 0.8125 -2.578125 1.125 -2.15625 1.90625 -1.796875 C 1.6875 -1.59375 1.46875 -1.40625 1.390625 -1.34375 C 1.015625 -1.03125 0.859375 -0.8125 0.859375 -0.59375 C 0.859375 -0.359375 1 -0.234375 1.484375 -0.015625 C 0.640625 0.5625 0.328125 0.921875 0.328125 1.328125 C 0.328125 1.90625 1.25 2.390625 2.359375 2.390625 C 3.25 2.390625 4.15625 2.109375 4.765625 1.640625 C 5.21875 1.3125 5.421875 0.953125 5.421875 0.53125 C 5.421875 -0.140625 4.859375 -0.609375 4 -0.640625 L 2.484375 -0.703125 C 1.859375 -0.71875 1.5625 -0.828125 1.5625 -1 C 1.5625 -1.21875 1.953125 -1.609375 2.265625 -1.6875 C 2.375 -1.6875 2.453125 -1.671875 2.484375 -1.671875 C 2.71875 -1.640625 2.859375 -1.640625 2.9375 -1.640625 C 3.375 -1.640625 3.84375 -1.796875 4.203125 -2.09375 C 4.59375 -2.40625 4.765625 -2.796875 4.765625 -3.34375 C 4.765625 -3.65625 4.71875 -3.90625 4.546875 -4.265625 Z M 1.734375 0.015625 C 2.109375 0.09375 3.0625 0.171875 3.625 0.171875 C 4.703125 0.171875 5.09375 0.3125 5.09375 0.703125 C 5.09375 1.34375 4.1875 1.765625 2.859375 1.765625 C 1.828125 1.765625 1.15625 1.453125 1.15625 0.96875 C 1.15625 0.71875 1.234375 0.578125 1.734375 0.015625 Z M 1.78125 -3.71875 C 1.78125 -4.359375 2.109375 -4.75 2.65625 -4.75 C 3.015625 -4.75 3.328125 -4.5625 3.515625 -4.234375 C 3.71875 -3.84375 3.859375 -3.34375 3.859375 -2.90625 C 3.859375 -2.296875 3.53125 -1.90625 2.984375 -1.90625 C 2.28125 -1.90625 1.78125 -2.625 1.78125 -3.6875 Z M 1.78125 -3.71875 " />
</g>
<g id="glyph-5-7">
<path d="M 0.078125 -4.28125 C 0.25 -4.3125 0.359375 -4.328125 0.5 -4.328125 C 0.78125 -4.328125 0.890625 -4.15625 0.890625 -3.671875 L 0.890625 -0.921875 C 0.890625 -0.375 0.8125 -0.296875 0.0625 -0.171875 L 0.0625 0 L 2.875 0 L 2.875 -0.171875 C 2.078125 -0.203125 1.875 -0.359375 1.875 -0.984375 L 1.875 -3.453125 C 1.875 -3.8125 2.390625 -4.359375 2.703125 -4.359375 C 2.765625 -4.359375 2.875 -4.3125 3.015625 -4.203125 C 3.203125 -4.046875 3.328125 -3.96875 3.484375 -3.96875 C 3.765625 -3.96875 3.9375 -4.15625 3.9375 -4.46875 C 3.9375 -4.828125 3.6875 -5.046875 3.296875 -5.046875 C 2.796875 -5.046875 2.453125 -4.796875 1.875 -4.015625 L 1.875 -5.03125 L 1.828125 -5.046875 C 1.203125 -4.8125 0.78125 -4.671875 0.078125 -4.453125 Z M 0.078125 -4.28125 " />
</g>
<g id="glyph-5-8">
<path d="M 0.21875 -4.375 C 0.375 -4.40625 0.46875 -4.421875 0.59375 -4.421875 C 0.90625 -4.421875 1.015625 -4.234375 1.015625 -3.71875 L 1.015625 -0.9375 C 1.015625 -0.34375 0.84375 -0.171875 0.1875 -0.171875 L 0.1875 0 L 2.796875 0 L 2.796875 -0.171875 C 2.171875 -0.1875 2 -0.3125 2 -0.734375 L 2 -3.828125 C 2 -3.859375 2.09375 -3.96875 2.171875 -4.046875 C 2.46875 -4.296875 2.96875 -4.484375 3.390625 -4.484375 C 3.90625 -4.484375 4.15625 -4.09375 4.15625 -3.328125 L 4.15625 -0.9375 C 4.15625 -0.328125 4.03125 -0.203125 3.359375 -0.171875 L 3.359375 0 L 6 0 L 6 -0.171875 C 5.328125 -0.171875 5.140625 -0.359375 5.140625 -1.046875 L 5.140625 -3.8125 C 5.5 -4.28125 5.890625 -4.484375 6.421875 -4.484375 C 7.09375 -4.484375 7.3125 -4.1875 7.3125 -3.265625 L 7.3125 -0.953125 C 7.3125 -0.328125 7.21875 -0.234375 6.53125 -0.171875 L 6.53125 0 L 9.109375 0 L 9.109375 -0.171875 L 8.796875 -0.1875 C 8.453125 -0.203125 8.296875 -0.40625 8.296875 -0.828125 L 8.296875 -3.09375 C 8.296875 -4.390625 7.84375 -5.046875 6.9375 -5.046875 C 6.25 -5.046875 5.65625 -4.765625 5.015625 -4.125 C 4.8125 -4.75 4.40625 -5.046875 3.765625 -5.046875 C 3.25 -5.046875 2.921875 -4.90625 1.953125 -4.203125 L 1.953125 -5.03125 L 1.875 -5.046875 C 1.265625 -4.84375 0.875 -4.71875 0.21875 -4.5625 Z M 0.21875 -4.375 " />
</g>
<g id="glyph-5-9">
<path d="M 3.703125 -3.453125 L 3.65625 -4.9375 L 3.53125 -4.9375 L 3.5 -4.921875 C 3.390625 -4.84375 3.390625 -4.828125 3.34375 -4.828125 C 3.265625 -4.828125 3.15625 -4.859375 3.015625 -4.90625 C 2.765625 -5 2.5 -5.046875 2.203125 -5.046875 C 1.265625 -5.046875 0.59375 -4.484375 0.59375 -3.6875 C 0.59375 -3.078125 0.96875 -2.640625 1.96875 -2.109375 L 2.65625 -1.75 C 3.0625 -1.53125 3.265625 -1.265625 3.265625 -0.921875 C 3.265625 -0.4375 2.890625 -0.125 2.296875 -0.125 C 1.890625 -0.125 1.53125 -0.28125 1.296875 -0.515625 C 1.0625 -0.796875 0.953125 -1.046875 0.796875 -1.671875 L 0.609375 -1.671875 L 0.609375 0.046875 L 0.765625 0.046875 C 0.84375 -0.0625 0.890625 -0.09375 1.03125 -0.09375 C 1.140625 -0.09375 1.296875 -0.0625 1.578125 0 C 1.90625 0.0625 2.21875 0.109375 2.4375 0.109375 C 3.34375 0.109375 4.09375 -0.53125 4.09375 -1.296875 C 4.09375 -1.84375 3.8125 -2.203125 3.109375 -2.609375 L 1.828125 -3.3125 C 1.5 -3.484375 1.328125 -3.75 1.328125 -4.046875 C 1.328125 -4.5 1.6875 -4.796875 2.234375 -4.796875 C 2.90625 -4.796875 3.25 -4.421875 3.53125 -3.453125 Z M 3.703125 -3.453125 " />
</g>
<g id="glyph-5-10">
<path d="M 2.9375 -5.046875 C 1.40625 -5.046875 0.34375 -4 0.34375 -2.484375 C 0.34375 -1 1.4375 0.109375 2.90625 0.109375 C 4.390625 0.109375 5.515625 -1.046875 5.515625 -2.578125 C 5.515625 -4.015625 4.4375 -5.046875 2.9375 -5.046875 Z M 2.78125 -4.75 C 3.765625 -4.75 4.46875 -3.6875 4.46875 -2.1875 C 4.46875 -0.9375 3.9375 -0.203125 3.0625 -0.203125 C 2.59375 -0.203125 2.15625 -0.46875 1.921875 -0.90625 C 1.59375 -1.46875 1.390625 -2.234375 1.390625 -3.015625 C 1.390625 -4.0625 1.953125 -4.75 2.78125 -4.75 Z M 2.78125 -4.75 " />
</g>
<g id="glyph-5-11">
<path d="M 6.703125 -4.9375 L 6.703125 -4.78125 C 7.109375 -4.703125 7.21875 -4.625 7.21875 -4.4375 C 7.21875 -4.265625 7.15625 -4.015625 7.03125 -3.71875 L 5.96875 -1.28125 L 4.984375 -3.734375 C 4.78125 -4.234375 4.78125 -4.234375 4.78125 -4.375 C 4.78125 -4.625 4.90625 -4.703125 5.46875 -4.78125 L 5.46875 -4.9375 L 3.078125 -4.9375 L 3.078125 -4.78125 C 3.515625 -4.734375 3.65625 -4.609375 3.890625 -4.015625 C 3.96875 -3.8125 4.046875 -3.609375 4.125 -3.40625 L 3.0625 -1.21875 L 1.890625 -4.09375 C 1.84375 -4.203125 1.828125 -4.3125 1.828125 -4.421875 C 1.828125 -4.640625 1.96875 -4.734375 2.359375 -4.78125 L 2.359375 -4.9375 L 0.25 -4.9375 L 0.25 -4.78125 C 0.515625 -4.75 0.609375 -4.640625 0.875 -4.09375 L 2.453125 -0.328125 C 2.59375 0 2.6875 0.15625 2.765625 0.15625 C 2.8125 0.15625 2.90625 0.015625 3.0625 -0.28125 L 4.375 -2.90625 L 5.4375 -0.3125 C 5.609375 0.09375 5.65625 0.15625 5.71875 0.15625 C 5.796875 0.15625 5.859375 0.0625 6.046875 -0.390625 L 7.671875 -4.1875 C 7.890625 -4.640625 7.921875 -4.703125 8.15625 -4.78125 L 8.15625 -4.9375 Z M 6.703125 -4.9375 " />
</g>
<g id="glyph-5-12">
<path d="M 0.109375 -4.3125 C 0.21875 -4.328125 0.296875 -4.328125 0.40625 -4.328125 C 0.796875 -4.328125 0.875 -4.21875 0.875 -3.703125 L 0.875 1.4375 C 0.875 2.015625 0.75 2.125 0.0625 2.203125 L 0.0625 2.390625 L 2.90625 2.390625 L 2.90625 2.1875 C 2.015625 2.171875 1.875 2.046875 1.875 1.359375 L 1.875 -0.359375 C 2.28125 0 2.5625 0.109375 3.0625 0.109375 C 4.4375 0.109375 5.515625 -1.125 5.515625 -2.71875 C 5.515625 -4.078125 4.703125 -5.046875 3.5625 -5.046875 C 2.90625 -5.046875 2.390625 -4.78125 1.875 -4.1875 L 1.875 -5.03125 L 1.796875 -5.046875 C 1.15625 -4.828125 0.75 -4.671875 0.109375 -4.5 Z M 1.875 -3.671875 C 1.875 -4 2.53125 -4.390625 3.0625 -4.390625 C 3.9375 -4.390625 4.515625 -3.5625 4.515625 -2.28125 C 4.515625 -1.0625 3.9375 -0.234375 3.09375 -0.234375 C 2.53125 -0.234375 1.875 -0.640625 1.875 -0.96875 Z M 1.875 -3.671875 " />
</g>
<g id="glyph-5-13">
<path d="M 3 -4.9375 L 1.8125 -4.9375 L 1.8125 -6.21875 C 1.8125 -6.328125 1.796875 -6.359375 1.734375 -6.359375 C 1.640625 -6.265625 1.578125 -6.15625 1.5 -6.046875 C 1.046875 -5.453125 0.546875 -4.921875 0.359375 -4.875 C 0.21875 -4.796875 0.15625 -4.71875 0.15625 -4.671875 C 0.15625 -4.640625 0.171875 -4.609375 0.203125 -4.59375 L 0.828125 -4.59375 L 0.828125 -1.28125 C 0.828125 -0.359375 1.171875 0.109375 1.875 0.109375 C 2.4375 0.109375 2.890625 -0.15625 3.28125 -0.71875 L 3.125 -0.84375 C 2.875 -0.578125 2.671875 -0.46875 2.421875 -0.46875 C 1.984375 -0.46875 1.8125 -0.765625 1.8125 -1.453125 L 1.8125 -4.59375 L 3 -4.59375 Z M 3 -4.9375 " />
</g>
<g id="glyph-5-14">
<path d="M 3.625 -4.9375 L 2.1875 -4.9375 L 2.1875 -6.21875 C 2.1875 -6.859375 2.40625 -7.1875 2.859375 -7.1875 C 3.109375 -7.1875 3.265625 -7.078125 3.484375 -6.765625 C 3.671875 -6.484375 3.8125 -6.375 4 -6.375 C 4.28125 -6.375 4.5 -6.5625 4.5 -6.828125 C 4.5 -7.21875 3.984375 -7.5 3.28125 -7.5 C 2.546875 -7.5 1.921875 -7.203125 1.625 -6.703125 C 1.3125 -6.21875 1.21875 -5.828125 1.203125 -4.9375 L 0.25 -4.9375 L 0.25 -4.59375 L 1.203125 -4.59375 L 1.203125 -1.140625 C 1.203125 -0.34375 1.078125 -0.203125 0.234375 -0.171875 L 0.234375 0 L 3.296875 0 L 3.296875 -0.171875 C 2.328125 -0.203125 2.203125 -0.3125 2.203125 -1.140625 L 2.203125 -4.59375 L 3.625 -4.59375 Z M 3.625 -4.9375 " />
</g>
<g id="glyph-5-15">
<path d="M 4.671875 -1.71875 C 4.109375 -0.9375 3.6875 -0.6875 3.015625 -0.6875 C 1.953125 -0.6875 1.203125 -1.5625 1.203125 -2.828125 C 1.203125 -3.953125 1.84375 -4.734375 2.796875 -4.734375 C 3.21875 -4.734375 3.375 -4.609375 3.484375 -4.203125 L 3.5625 -3.96875 C 3.65625 -3.65625 3.859375 -3.453125 4.109375 -3.453125 C 4.421875 -3.453125 4.671875 -3.671875 4.671875 -3.921875 C 4.671875 -4.53125 3.859375 -5.046875 2.859375 -5.046875 C 2.296875 -5.046875 1.6875 -4.828125 1.203125 -4.4375 C 0.625 -3.953125 0.296875 -3.203125 0.296875 -2.34375 C 0.296875 -0.90625 1.21875 0.109375 2.53125 0.109375 C 3.0625 0.109375 3.53125 -0.0625 3.953125 -0.40625 C 4.265625 -0.671875 4.484375 -0.96875 4.84375 -1.609375 Z M 4.671875 -1.71875 " />
</g>
<g id="glyph-5-16">
<path d="M 5.625 -0.546875 L 5.5625 -0.546875 C 5.03125 -0.546875 4.90625 -0.671875 4.90625 -1.171875 L 4.90625 -4.9375 L 3.046875 -4.9375 L 3.046875 -4.75 C 3.765625 -4.71875 3.90625 -4.609375 3.90625 -4.0625 L 3.90625 -1.484375 C 3.90625 -1.171875 3.859375 -1.015625 3.6875 -0.90625 C 3.375 -0.65625 3.015625 -0.53125 2.65625 -0.53125 C 2.203125 -0.53125 1.828125 -0.90625 1.828125 -1.359375 L 1.828125 -4.9375 L 0.109375 -4.9375 L 0.109375 -4.796875 C 0.671875 -4.75 0.828125 -4.59375 0.828125 -4.09375 L 0.828125 -1.3125 C 0.828125 -0.453125 1.390625 0.109375 2.25 0.109375 C 2.6875 0.109375 3.15625 -0.0625 3.46875 -0.359375 L 3.96875 -0.828125 L 3.96875 0.078125 L 4.015625 0.09375 C 4.609375 -0.125 5.03125 -0.234375 5.625 -0.390625 Z M 5.625 -0.546875 " />
</g>
<g id="glyph-5-17">
<path d="M 5.609375 -4.9375 L 3.96875 -4.9375 L 3.96875 -4.78125 C 4.34375 -4.75 4.53125 -4.640625 4.53125 -4.421875 C 4.53125 -4.3125 4.5 -4.203125 4.453125 -4.09375 L 3.296875 -1.25 L 2.09375 -4.0625 C 2.015625 -4.21875 1.984375 -4.375 1.984375 -4.46875 C 1.984375 -4.671875 2.109375 -4.75 2.53125 -4.78125 L 2.53125 -4.9375 L 0.21875 -4.9375 L 0.21875 -4.78125 C 0.671875 -4.75 0.75 -4.640625 1.296875 -3.515625 L 2.703125 -0.359375 C 2.71875 -0.296875 2.765625 -0.21875 2.796875 -0.125 C 2.859375 0.0625 2.9375 0.15625 3.015625 0.15625 C 3.078125 0.15625 3.15625 0.015625 3.34375 -0.390625 L 4.84375 -3.921875 C 5.1875 -4.671875 5.25 -4.75 5.609375 -4.78125 Z M 5.609375 -4.9375 " />
</g>
<g id="glyph-5-18">
<path d="M 4.234375 -4.671875 C 3.6875 -4.96875 3.34375 -5.0625 2.875 -5.0625 C 1.40625 -5.0625 0.28125 -3.828125 0.28125 -2.25 C 0.28125 -0.875 1.0625 0.109375 2.15625 0.109375 C 2.84375 0.109375 3.484375 -0.171875 4 -0.703125 L 4 1.359375 C 4 1.984375 3.796875 2.140625 2.96875 2.203125 L 2.96875 2.390625 L 5.734375 2.390625 L 5.734375 2.234375 C 5.09375 2.09375 5 2.015625 5 1.546875 L 5 -5.015625 L 4.859375 -5.015625 Z M 4 -1.390625 C 4 -1.125 3.953125 -0.984375 3.84375 -0.90625 C 3.578125 -0.6875 3.203125 -0.5625 2.828125 -0.5625 C 2.46875 -0.5625 2.15625 -0.671875 1.921875 -0.890625 C 1.546875 -1.203125 1.296875 -1.921875 1.296875 -2.640625 C 1.296875 -3.9375 1.921875 -4.75 2.90625 -4.75 C 3.640625 -4.75 4 -4.390625 4 -3.65625 Z M 4 -1.390625 " />
</g>
<g id="glyph-5-19">
<path d="M 0.1875 -4.375 C 0.265625 -4.40625 0.375 -4.421875 0.5 -4.421875 C 0.828125 -4.421875 0.9375 -4.25 0.9375 -3.71875 L 0.9375 -0.984375 C 0.9375 -0.359375 0.8125 -0.203125 0.21875 -0.171875 L 0.21875 0 L 2.703125 0 L 2.703125 -0.171875 C 2.109375 -0.203125 1.921875 -0.34375 1.921875 -0.734375 L 1.921875 -3.828125 C 2.484375 -4.3125 2.75 -4.453125 3.140625 -4.453125 C 3.71875 -4.453125 4 -4.109375 4 -3.390625 L 4 -1.09375 C 4 -0.390625 3.84375 -0.203125 3.25 -0.171875 L 3.25 0 L 5.703125 0 L 5.703125 -0.171875 C 5.125 -0.21875 4.984375 -0.34375 4.984375 -0.890625 L 4.984375 -3.40625 C 4.984375 -4.4375 4.46875 -5.046875 3.59375 -5.046875 C 3.0625 -5.046875 2.6875 -4.859375 1.890625 -4.15625 L 1.890625 -5.03125 L 1.8125 -5.046875 C 1.234375 -4.859375 0.828125 -4.734375 0.1875 -4.5625 Z M 0.1875 -4.375 " />
</g>
<g id="glyph-5-20">
<path d="M 5.578125 -1.5 L 5.421875 -1.5625 C 5 -0.9375 4.84375 -0.828125 4.3125 -0.828125 L 1.5 -0.828125 L 3.484375 -2.765625 C 4.53125 -3.796875 4.984375 -4.625 4.984375 -5.484375 C 4.984375 -6.578125 4.03125 -7.421875 2.8125 -7.421875 C 2.15625 -7.421875 1.546875 -7.1875 1.109375 -6.75 C 0.734375 -6.375 0.5625 -6.015625 0.359375 -5.234375 L 0.609375 -5.1875 C 1.078125 -6.265625 1.5 -6.609375 2.3125 -6.609375 C 3.296875 -6.609375 3.96875 -5.984375 3.96875 -5.0625 C 3.96875 -4.203125 3.4375 -3.1875 2.4375 -2.203125 L 0.359375 -0.125 L 0.359375 0 L 4.9375 0 Z M 5.578125 -1.5 " />
</g>
<g id="glyph-5-21">
<path d="M 0.21875 -6.84375 L 0.296875 -6.84375 C 0.421875 -6.859375 0.5625 -6.859375 0.65625 -6.859375 C 1.03125 -6.859375 1.15625 -6.71875 1.15625 -6.1875 L 1.15625 -0.953125 C 1.15625 -0.359375 0.984375 -0.21875 0.25 -0.171875 L 0.25 0 L 3.015625 0 L 3.015625 -0.171875 C 2.28125 -0.203125 2.140625 -0.3125 2.140625 -0.921875 L 2.140625 -7.484375 L 2.09375 -7.5 C 1.484375 -7.3125 1.03125 -7.203125 0.21875 -7.015625 Z M 0.21875 -6.84375 " />
</g>
<g id="glyph-5-22">
<path d="M 2.125 -6.40625 L 4.4375 -6.40625 C 4.625 -6.40625 4.671875 -6.421875 4.703125 -6.5 L 5.140625 -7.484375 L 5.046875 -7.5625 C 4.859375 -7.328125 4.75 -7.265625 4.5 -7.265625 L 2.046875 -7.265625 L 0.765625 -4.671875 C 0.75 -4.640625 0.75 -4.640625 0.75 -4.609375 C 0.75 -4.5625 0.796875 -4.53125 0.890625 -4.53125 C 1.265625 -4.53125 1.734375 -4.453125 2.21875 -4.3125 C 3.578125 -3.90625 4.1875 -3.21875 4.1875 -2.125 C 4.1875 -1.078125 3.484375 -0.25 2.5625 -0.25 C 2.328125 -0.25 2.125 -0.328125 1.78125 -0.578125 C 1.390625 -0.828125 1.125 -0.9375 0.875 -0.9375 C 0.546875 -0.9375 0.375 -0.796875 0.375 -0.53125 C 0.375 -0.109375 0.921875 0.15625 1.8125 0.15625 C 2.796875 0.15625 3.640625 -0.140625 4.234375 -0.703125 C 4.765625 -1.203125 5.015625 -1.828125 5.015625 -2.65625 C 5.015625 -3.453125 4.796875 -3.953125 4.203125 -4.5 C 3.6875 -4.984375 3.015625 -5.234375 1.640625 -5.46875 Z M 2.125 -6.40625 " />
</g>
<g id="glyph-5-23">
<path d="M 3.421875 -7.421875 L 1.296875 -6.421875 L 1.296875 -6.265625 C 1.4375 -6.328125 1.578125 -6.375 1.625 -6.390625 C 1.828125 -6.46875 2.03125 -6.515625 2.15625 -6.515625 C 2.390625 -6.515625 2.5 -6.34375 2.5 -6 L 2.5 -1.015625 C 2.5 -0.65625 2.40625 -0.40625 2.21875 -0.3125 C 2.046875 -0.203125 1.875 -0.171875 1.390625 -0.171875 L 1.390625 0 L 4.625 0 L 4.625 -0.171875 C 3.703125 -0.171875 3.515625 -0.28125 3.515625 -0.8125 L 3.515625 -7.40625 Z M 3.421875 -7.421875 " />
</g>
<g id="glyph-5-24">
<path d="M 1.46875 -1.09375 C 1.109375 -1.09375 0.828125 -0.8125 0.828125 -0.46875 C 0.828125 -0.15625 1.109375 0.125 1.453125 0.125 C 1.828125 0.125 2.125 -0.15625 2.125 -0.46875 C 2.125 -0.8125 1.828125 -1.09375 1.46875 -1.09375 Z M 1.46875 -1.09375 " />
</g>
<g id="glyph-5-25">
<path d="M 1.796875 -7.484375 L 1.734375 -7.5 C 1.25 -7.34375 0.921875 -7.25 0.375 -7.109375 L 0.03125 -7.015625 L 0.03125 -6.84375 C 0.109375 -6.859375 0.15625 -6.859375 0.234375 -6.859375 C 0.703125 -6.859375 0.8125 -6.75 0.8125 -6.296875 L 0.8125 -0.59375 C 0.8125 -0.25 1.8125 0.109375 2.75 0.109375 C 4.296875 0.109375 5.5 -1.09375 5.5 -2.671875 C 5.5 -4.015625 4.609375 -5.046875 3.4375 -5.046875 C 2.71875 -5.046875 2.03125 -4.65625 1.796875 -4.125 Z M 1.796875 -3.53125 C 1.796875 -3.96875 2.34375 -4.359375 2.96875 -4.359375 C 3.875 -4.359375 4.46875 -3.5 4.46875 -2.15625 C 4.46875 -0.9375 3.90625 -0.234375 2.9375 -0.234375 C 2.328125 -0.234375 1.796875 -0.5 1.796875 -0.765625 Z M 1.796875 -3.53125 " />
</g>
<g id="glyph-5-26">
<path d="M 5.578125 -4.9375 L 4 -4.9375 L 4 -4.78125 C 4.375 -4.78125 4.5625 -4.671875 4.5625 -4.5 C 4.5625 -4.453125 4.546875 -4.390625 4.515625 -4.3125 L 3.375 -1.28125 L 2.015625 -4.0625 C 1.953125 -4.21875 1.90625 -4.359375 1.90625 -4.484375 C 1.90625 -4.671875 2.078125 -4.75 2.578125 -4.78125 L 2.578125 -4.9375 L 0.171875 -4.9375 L 0.171875 -4.796875 C 0.46875 -4.75 0.671875 -4.625 0.765625 -4.4375 L 2.109375 -1.734375 L 2.140625 -1.640625 L 2.3125 -1.3125 C 2.640625 -0.765625 2.828125 -0.375 2.828125 -0.203125 C 2.828125 -0.046875 2.5625 0.640625 2.359375 0.984375 C 2.203125 1.265625 1.9375 1.46875 1.78125 1.46875 C 1.703125 1.46875 1.59375 1.453125 1.484375 1.390625 C 1.25 1.3125 1.0625 1.28125 0.859375 1.28125 C 0.59375 1.28125 0.359375 1.5 0.359375 1.75 C 0.359375 2.125 0.734375 2.390625 1.21875 2.390625 C 2.015625 2.390625 2.578125 1.78125 3.203125 0.203125 L 5.015625 -4.28125 C 5.171875 -4.640625 5.296875 -4.75 5.578125 -4.78125 Z M 5.578125 -4.9375 " />
</g>
<g id="glyph-5-27">
<path d="M 1.796875 -3.625 C 2.484375 -3.625 2.765625 -3.609375 3.046875 -3.5 C 3.765625 -3.265625 4.234375 -2.640625 4.234375 -1.875 C 4.234375 -0.953125 3.5625 -0.234375 2.6875 -0.234375 C 2.375 -0.234375 2.140625 -0.3125 1.703125 -0.578125 C 1.34375 -0.78125 1.15625 -0.859375 0.953125 -0.859375 C 0.6875 -0.859375 0.5 -0.703125 0.5 -0.46875 C 0.5 -0.09375 1.015625 0.15625 1.828125 0.15625 C 2.734375 0.15625 3.671875 -0.125 4.21875 -0.578125 C 4.765625 -1.03125 5.078125 -1.671875 5.078125 -2.40625 C 5.078125 -2.96875 4.890625 -3.484375 4.546875 -3.828125 C 4.3125 -4.0625 4.09375 -4.203125 3.578125 -4.40625 C 4.375 -4.921875 4.671875 -5.328125 4.671875 -5.921875 C 4.671875 -6.8125 3.921875 -7.421875 2.84375 -7.421875 C 2.25 -7.421875 1.734375 -7.234375 1.3125 -6.890625 C 0.96875 -6.59375 0.78125 -6.3125 0.53125 -5.640625 L 0.703125 -5.609375 C 1.1875 -6.40625 1.71875 -6.765625 2.453125 -6.765625 C 3.21875 -6.765625 3.75 -6.28125 3.75 -5.59375 C 3.75 -5.203125 3.578125 -4.796875 3.28125 -4.53125 C 2.921875 -4.203125 2.59375 -4.03125 1.796875 -3.765625 Z M 1.796875 -3.625 " />
</g>
<g id="glyph-5-28">
<path d="M 5.234375 -7.515625 C 3.90625 -7.40625 3.21875 -7.1875 2.359375 -6.640625 C 1.09375 -5.78125 0.40625 -4.53125 0.40625 -3.0625 C 0.40625 -2.109375 0.71875 -1.140625 1.21875 -0.59375 C 1.671875 -0.109375 2.296875 0.15625 3.03125 0.15625 C 4.484375 0.15625 5.5 -0.890625 5.5 -2.40625 C 5.5 -3.8125 4.640625 -4.703125 3.296875 -4.703125 C 2.765625 -4.703125 2.53125 -4.625 1.78125 -4.203125 C 2.109375 -5.859375 3.421875 -7.046875 5.265625 -7.34375 Z M 2.84375 -4.203125 C 3.859375 -4.203125 4.4375 -3.40625 4.4375 -2.03125 C 4.4375 -0.828125 3.984375 -0.15625 3.15625 -0.15625 C 2.125 -0.15625 1.5 -1.1875 1.5 -2.890625 C 1.5 -3.453125 1.59375 -3.75 1.828125 -3.921875 C 2.0625 -4.09375 2.4375 -4.203125 2.84375 -4.203125 Z M 2.84375 -4.203125 " />
</g>
<g id="glyph-5-29">
<path d="M 2.984375 -7.421875 C 2.34375 -7.421875 1.84375 -7.234375 1.40625 -6.859375 C 0.734375 -6.234375 0.28125 -4.96875 0.28125 -3.6875 C 0.28125 -2.5 0.671875 -1.203125 1.21875 -0.59375 C 1.65625 -0.109375 2.25 0.15625 2.9375 0.15625 C 3.53125 0.15625 4.046875 -0.03125 4.46875 -0.421875 C 5.140625 -1.015625 5.59375 -2.296875 5.59375 -3.625 C 5.59375 -5.875 4.53125 -7.421875 2.984375 -7.421875 Z M 2.953125 -7.140625 C 3.9375 -7.140625 4.46875 -5.90625 4.46875 -3.609375 C 4.46875 -1.3125 3.953125 -0.125 2.9375 -0.125 C 1.921875 -0.125 1.40625 -1.3125 1.40625 -3.59375 C 1.40625 -5.921875 1.9375 -7.140625 2.953125 -7.140625 Z M 2.953125 -7.140625 " />
</g>
<g id="glyph-5-30">
<path d="M 0.515625 -2.828125 L 0.515625 -2.125 L 3.40625 -2.125 L 3.40625 -2.828125 Z M 0.515625 -2.828125 " />
</g>
<g id="glyph-5-31">
<path d="M 3.265625 0 L 5.625 0 L 5.625 -0.171875 C 5.265625 -0.171875 5.03125 -0.34375 4.671875 -0.828125 L 3.15625 -2.984375 L 4.140625 -4.296875 C 4.359375 -4.59375 4.71875 -4.765625 5.09375 -4.78125 L 5.09375 -4.9375 L 3.234375 -4.9375 L 3.234375 -4.78125 C 3.578125 -4.75 3.703125 -4.6875 3.703125 -4.53125 C 3.703125 -4.40625 3.5625 -4.15625 3.265625 -3.828125 C 3.203125 -3.75 3.0625 -3.5625 2.90625 -3.34375 L 2.75 -3.5625 C 2.421875 -4.015625 2.203125 -4.390625 2.203125 -4.53125 C 2.203125 -4.6875 2.359375 -4.765625 2.71875 -4.78125 L 2.71875 -4.9375 L 0.28125 -4.9375 L 0.28125 -4.78125 L 0.390625 -4.78125 C 0.734375 -4.78125 0.921875 -4.640625 1.296875 -4.125 L 2.390625 -2.53125 L 1.0625 -0.71875 C 0.703125 -0.28125 0.59375 -0.203125 0.203125 -0.171875 L 0.203125 0 L 1.90625 0 L 1.90625 -0.171875 C 1.578125 -0.171875 1.4375 -0.21875 1.4375 -0.359375 C 1.4375 -0.421875 1.515625 -0.59375 1.671875 -0.8125 L 2.59375 -2.15625 L 3.671875 -0.625 C 3.71875 -0.5625 3.734375 -0.5 3.734375 -0.421875 C 3.734375 -0.234375 3.65625 -0.1875 3.265625 -0.171875 Z M 3.265625 0 " />
</g>
<g id="glyph-5-32">
<path d="M 5.625 -2.53125 L 5.625 -5.078125 L 5.359375 -5.078125 C 5.21875 -4.203125 5 -4.046875 4.0625 -4.046875 L 2.359375 -4.046875 L 2.359375 -6.484375 C 2.359375 -6.78125 2.421875 -6.859375 2.734375 -6.859375 L 4.328125 -6.859375 C 5.65625 -6.859375 5.921875 -6.6875 6.125 -5.703125 L 6.421875 -5.703125 L 6.375 -7.265625 L 0.140625 -7.265625 L 0.140625 -7.0625 C 1.015625 -7 1.15625 -6.84375 1.15625 -6.078125 L 1.15625 -1.3125 C 1.15625 -0.40625 1.03125 -0.265625 0.140625 -0.203125 L 0.140625 0 L 3.4375 0 L 3.4375 -0.203125 C 2.53125 -0.25 2.359375 -0.40625 2.359375 -1.203125 L 2.359375 -3.59375 L 4.0625 -3.59375 C 5.015625 -3.59375 5.21875 -3.421875 5.359375 -2.53125 Z M 5.625 -2.53125 " />
</g>
<g id="glyph-5-33">
<path d="M 3.515625 1.4375 L 2.5 1.4375 C 2.109375 1.4375 1.921875 1.25 1.921875 0.875 L 1.921875 -6.515625 C 1.921875 -6.859375 2.078125 -7 2.453125 -7 L 3.515625 -7 L 3.515625 -7.265625 L 1.03125 -7.265625 L 1.03125 1.71875 L 3.515625 1.71875 Z M 3.515625 1.4375 " />
</g>
<g id="glyph-5-34">
<path d="M 0.40625 1.4375 L 0.40625 1.71875 L 2.875 1.71875 L 2.875 -7.265625 L 0.40625 -7.265625 L 0.40625 -7 L 1.40625 -7 C 1.796875 -7 1.984375 -6.8125 1.984375 -6.421875 L 1.984375 0.953125 C 1.984375 1.296875 1.828125 1.4375 1.453125 1.4375 Z M 0.40625 1.4375 " />
</g>
<g id="glyph-6-0">
<path d="M 0.1875 -4.78125 L 0.1875 -4.59375 C 0.34375 -4.625 0.4375 -4.640625 0.5625 -4.640625 C 1.265625 -4.640625 1.453125 -4.34375 2.015625 -2.375 C 2.21875 -1.625 2.515625 -0.28125 2.515625 -0.09375 C 2.515625 0.34375 1.328125 1.734375 0.9375 1.734375 C 0.765625 1.734375 0.46875 1.40625 0.1875 1.40625 C -0.09375 1.40625 -0.296875 1.609375 -0.296875 1.859375 C -0.296875 2.140625 -0.03125 2.359375 0.328125 2.359375 C 1.8125 2.359375 5.234375 -2.953125 5.234375 -4.421875 C 5.234375 -4.765625 4.921875 -5.0625 4.5625 -5.0625 C 4.28125 -5.0625 4.078125 -4.890625 4.078125 -4.640625 C 4.078125 -4.15625 4.734375 -4.21875 4.734375 -3.796875 C 4.734375 -3.34375 4.28125 -2.4375 3.25 -0.828125 L 3 -2.15625 C 2.8125 -3.171875 2.125 -5.0625 1.9375 -5.0625 C 1.53125 -5.015625 1.375 -4.984375 0.1875 -4.78125 Z M 0.1875 -4.78125 " />
</g>
<g id="glyph-6-1">
<path d="M 4.109375 -0.5 C 3.921875 -0.5 3.8125 -0.65625 3.71875 -0.96875 C 3.59375 -1.421875 3.234375 -2.796875 3.234375 -3.03125 C 3.765625 -3.90625 4.21875 -4.421875 4.4375 -4.421875 C 4.65625 -4.421875 4.8125 -4.21875 5.0625 -4.21875 C 5.3125 -4.21875 5.484375 -4.390625 5.484375 -4.640625 C 5.484375 -4.875 5.28125 -5.0625 4.984375 -5.0625 C 4.453125 -5.0625 3.984375 -4.640625 3.125 -3.421875 L 3 -4.046875 C 2.828125 -4.828125 2.6875 -5.0625 2.359375 -5.0625 C 2.09375 -5.0625 1.671875 -4.953125 0.921875 -4.71875 L 0.78125 -4.671875 L 0.828125 -4.5 C 1.296875 -4.609375 1.40625 -4.640625 1.515625 -4.640625 C 1.828125 -4.640625 1.90625 -4.53125 2.078125 -3.84375 L 2.4375 -2.4375 L 1.421875 -1.09375 C 1.171875 -0.75 0.9375 -0.53125 0.796875 -0.53125 C 0.578125 -0.53125 0.375 -0.75 0.09375 -0.75 C -0.140625 -0.75 -0.328125 -0.578125 -0.328125 -0.359375 C -0.328125 -0.0625 -0.09375 0.125 0.28125 0.125 C 0.71875 0.125 1 -0.03125 2.53125 -2.015625 L 2.890625 -0.640625 C 3.0625 -0.0625 3.21875 0.125 3.609375 0.125 C 4.078125 0.125 4.390625 -0.15625 5.109375 -1.1875 L 4.9375 -1.265625 C 4.328125 -0.640625 4.328125 -0.5 4.109375 -0.5 Z M 4.109375 -0.5 " />
</g>
<g id="glyph-7-0">
<path d="M 4.078125 -1.09375 L 3.96875 -1.140625 C 3.640625 -0.6875 3.53125 -0.609375 3.140625 -0.609375 L 1.09375 -0.609375 L 2.546875 -2.015625 C 3.296875 -2.765625 3.640625 -3.375 3.640625 -4 C 3.640625 -4.796875 2.9375 -5.421875 2.046875 -5.421875 C 1.578125 -5.421875 1.125 -5.25 0.8125 -4.921875 C 0.546875 -4.65625 0.40625 -4.390625 0.265625 -3.828125 L 0.453125 -3.78125 C 0.796875 -4.5625 1.09375 -4.828125 1.6875 -4.828125 C 2.40625 -4.828125 2.90625 -4.375 2.90625 -3.6875 C 2.90625 -3.0625 2.5 -2.328125 1.78125 -1.609375 L 0.25 -0.09375 L 0.25 0 L 3.609375 0 Z M 4.078125 -1.09375 " />
</g>
<g id="glyph-8-0">
<path d="M 6.3125 -4.1875 L 0.546875 -4.1875 L 0.546875 -3.5625 L 6.3125 -3.5625 Z M 6.3125 -1.921875 L 0.546875 -1.921875 L 0.546875 -1.3125 L 6.3125 -1.3125 Z M 6.3125 -1.921875 " />
</g>
<g id="glyph-9-0">
<path d="M 0.546875 -3.046875 L 0.546875 -2.4375 L 6.3125 -2.4375 L 6.3125 -3.046875 Z M 0.546875 -3.046875 " />
</g>
<g id="glyph-9-1">
<path d="M 2.34375 -7.421875 C 1.40625 -7.421875 0.671875 -6.734375 0.671875 -5.859375 C 0.671875 -4.984375 1.40625 -4.28125 2.328125 -4.28125 C 3.28125 -4.28125 4.03125 -4.96875 4.03125 -5.84375 C 4.03125 -6.734375 3.296875 -7.421875 2.34375 -7.421875 Z M 2.34375 -7.046875 C 3.015625 -7.046875 3.5625 -6.5 3.5625 -5.859375 C 3.5625 -5.203125 3.015625 -4.65625 2.34375 -4.65625 C 1.6875 -4.65625 1.125 -5.203125 1.125 -5.859375 C 1.125 -6.5 1.6875 -7.046875 2.34375 -7.046875 Z M 2.34375 -7.046875 " />
</g>
<g id="glyph-10-0">
<path d="M 3.515625 -4.25 C 2.390625 -4.25 1.625 -3.59375 1.625 -2.640625 C 1.625 -1.734375 2.3125 -1.125 3.34375 -1.125 C 3.84375 -1.125 4.5 -1.265625 4.53125 -1.359375 L 4.671875 -1.96875 L 4.53125 -1.96875 C 4.28125 -1.484375 3.984375 -1.28125 3.484375 -1.28125 C 2.71875 -1.28125 2.28125 -1.796875 2.28125 -2.6875 C 2.28125 -3.578125 2.703125 -4.09375 3.46875 -4.09375 C 4.015625 -4.09375 4.3125 -3.84375 4.390625 -3.375 L 4.53125 -3.375 L 4.53125 -3.9375 C 4.53125 -4.125 3.828125 -4.25 3.515625 -4.25 Z M 3.296875 -5.390625 C 1.625 -5.390625 0.328125 -4.1875 0.328125 -2.640625 C 0.328125 -1.109375 1.625 0.109375 3.25 0.109375 C 4.890625 0.109375 6.171875 -1.109375 6.171875 -2.640625 C 6.171875 -4.15625 4.875 -5.390625 3.296875 -5.390625 Z M 3.296875 -5.0625 C 4.59375 -5.0625 5.703125 -3.9375 5.703125 -2.640625 C 5.703125 -1.328125 4.59375 -0.21875 3.25 -0.21875 C 1.921875 -0.21875 0.796875 -1.328125 0.796875 -2.640625 C 0.796875 -3.96875 1.921875 -5.0625 3.296875 -5.0625 Z M 3.296875 -5.0625 " />
</g>
<g id="glyph-10-1">
<path d="M 5.21875 -4.109375 C 5.21875 -4.921875 5.328125 -5.046875 6.03125 -5.140625 L 6.03125 -5.28125 L 4.046875 -5.28125 L 4.046875 -5.140625 C 4.703125 -5.09375 4.84375 -4.90625 4.84375 -4.109375 L 4.84375 -1.953125 C 4.84375 -1.40625 4.78125 -1.109375 4.65625 -0.875 C 4.421875 -0.484375 3.875 -0.234375 3.234375 -0.234375 C 2.625 -0.234375 2.203125 -0.4375 1.96875 -0.8125 C 1.828125 -1.0625 1.765625 -1.359375 1.765625 -1.859375 L 1.765625 -4.421875 C 1.765625 -4.984375 1.859375 -5.078125 2.53125 -5.140625 L 2.53125 -5.28125 L 0.125 -5.28125 L 0.125 -5.140625 C 0.796875 -5.09375 0.890625 -5 0.890625 -4.421875 L 0.890625 -1.921875 C 0.890625 -0.546875 1.578125 0.109375 3.03125 0.109375 C 3.96875 0.109375 4.609375 -0.171875 4.9375 -0.703125 C 5.140625 -1.046875 5.21875 -1.40625 5.21875 -2.03125 Z M 5.21875 -4.109375 " />
</g>
<g id="glyph-10-2">
<path d="M 5.296875 -3.59375 L 5.21875 -5.390625 L 5.046875 -5.390625 C 4.984375 -5.234375 4.859375 -5.140625 4.6875 -5.140625 C 4.609375 -5.140625 4.484375 -5.15625 4.34375 -5.203125 C 3.9375 -5.328125 3.5 -5.390625 3.109375 -5.390625 C 2.40625 -5.390625 1.6875 -5.15625 1.15625 -4.703125 C 0.5625 -4.21875 0.234375 -3.46875 0.234375 -2.59375 C 0.234375 -1.859375 0.5 -1.171875 0.9375 -0.703125 C 1.4375 -0.1875 2.234375 0.109375 3.078125 0.109375 C 4.046875 0.109375 4.890625 -0.25 5.40625 -0.90625 L 5.25 -1.046875 C 4.625 -0.484375 4.0625 -0.234375 3.34375 -0.234375 C 2.8125 -0.234375 2.328125 -0.40625 1.96875 -0.703125 C 1.5 -1.09375 1.234375 -1.8125 1.234375 -2.703125 C 1.234375 -4.140625 2.03125 -5.078125 3.265625 -5.078125 C 3.75 -5.078125 4.203125 -4.90625 4.53125 -4.59375 C 4.8125 -4.328125 4.9375 -4.109375 5.109375 -3.59375 Z M 5.296875 -3.59375 " />
</g>
<g id="glyph-10-3">
<path d="M 4.890625 -1.390625 C 4.75 -1.078125 4.625 -0.90625 4.5 -0.765625 C 4.203125 -0.453125 3.734375 -0.3125 3.03125 -0.3125 L 2.453125 -0.3125 C 1.828125 -0.3125 1.71875 -0.359375 1.71875 -0.640625 L 1.71875 -4.421875 C 1.71875 -4.984375 1.84375 -5.09375 2.515625 -5.140625 L 2.515625 -5.28125 L 0.109375 -5.28125 L 0.109375 -5.140625 C 0.734375 -5.09375 0.84375 -4.96875 0.84375 -4.421875 L 0.84375 -0.875 C 0.84375 -0.3125 0.71875 -0.1875 0.109375 -0.15625 L 0.109375 0 L 4.703125 0 L 5.109375 -1.390625 Z M 4.890625 -1.390625 " />
</g>
<g id="glyph-10-4">
<path d="M 5.109375 -1.34375 L 4.859375 -1.34375 C 4.4375 -0.484375 4.0625 -0.296875 2.84375 -0.296875 L 2.609375 -0.296875 C 2.203125 -0.296875 1.84375 -0.328125 1.78125 -0.390625 C 1.734375 -0.421875 1.71875 -0.5 1.71875 -0.640625 L 1.71875 -2.609375 L 3.03125 -2.609375 C 3.734375 -2.609375 3.859375 -2.5 3.96875 -1.84375 L 4.171875 -1.84375 L 4.171875 -3.703125 L 3.96875 -3.703125 C 3.921875 -3.375 3.875 -3.25 3.78125 -3.140625 C 3.671875 -3 3.4375 -2.9375 3.03125 -2.9375 L 1.71875 -2.9375 L 1.71875 -4.703125 C 1.71875 -4.9375 1.765625 -4.984375 2 -4.984375 L 3.15625 -4.984375 C 4.125 -4.984375 4.3125 -4.859375 4.453125 -4.140625 L 4.671875 -4.140625 L 4.640625 -5.28125 L 0.109375 -5.28125 L 0.109375 -5.140625 C 0.734375 -5.09375 0.84375 -4.96875 0.84375 -4.421875 L 0.84375 -0.875 C 0.84375 -0.3125 0.71875 -0.1875 0.109375 -0.15625 L 0.109375 0 L 4.71875 0 Z M 5.109375 -1.34375 " />
</g>
<g id="glyph-10-5">
<path d="M 3.828125 -5.390625 L 3.640625 -5.390625 C 3.609375 -5.21875 3.515625 -5.125 3.375 -5.125 C 3.28125 -5.125 3.140625 -5.15625 2.984375 -5.21875 C 2.671875 -5.328125 2.359375 -5.390625 2.078125 -5.390625 C 1.71875 -5.390625 1.34375 -5.265625 1.0625 -5.03125 C 0.765625 -4.78125 0.609375 -4.453125 0.609375 -4.03125 C 0.609375 -3.390625 0.984375 -2.953125 1.9375 -2.46875 C 2.5625 -2.171875 3 -1.84375 3.21875 -1.546875 C 3.296875 -1.4375 3.328125 -1.265625 3.328125 -1.078125 C 3.328125 -0.546875 2.90625 -0.171875 2.28125 -0.171875 C 1.515625 -0.171875 0.984375 -0.609375 0.5625 -1.59375 L 0.359375 -1.59375 L 0.609375 0.109375 L 0.796875 0.109375 C 0.8125 -0.046875 0.921875 -0.15625 1.046875 -0.15625 C 1.140625 -0.15625 1.28125 -0.125 1.4375 -0.078125 C 1.765625 0.046875 2.109375 0.109375 2.453125 0.109375 C 3.4375 0.109375 4.203125 -0.515625 4.203125 -1.34375 C 4.203125 -2 3.71875 -2.515625 2.59375 -3.078125 C 1.703125 -3.546875 1.34375 -3.890625 1.34375 -4.328125 C 1.34375 -4.765625 1.703125 -5.0625 2.234375 -5.0625 C 2.609375 -5.0625 2.96875 -4.921875 3.265625 -4.625 C 3.53125 -4.375 3.65625 -4.171875 3.796875 -3.703125 L 4.015625 -3.703125 Z M 3.828125 -5.390625 " />
</g>
<g id="glyph-10-6">
<path d="M 4.0625 -1.09375 L 3.953125 -1.140625 C 3.625 -0.671875 3.515625 -0.609375 3.140625 -0.609375 L 1.09375 -0.609375 L 2.53125 -2.015625 C 3.296875 -2.75 3.625 -3.359375 3.625 -3.984375 C 3.625 -4.78125 2.9375 -5.390625 2.046875 -5.390625 C 1.578125 -5.390625 1.125 -5.21875 0.8125 -4.90625 C 0.53125 -4.625 0.40625 -4.375 0.265625 -3.8125 L 0.4375 -3.765625 C 0.78125 -4.546875 1.09375 -4.8125 1.6875 -4.8125 C 2.40625 -4.8125 2.890625 -4.34375 2.890625 -3.6875 C 2.890625 -3.0625 2.5 -2.3125 1.78125 -1.609375 L 0.25 -0.09375 L 0.25 0 L 3.59375 0 Z M 4.0625 -1.09375 " />
</g>
<g id="glyph-10-7">
<path d="M 2.171875 -5.390625 C 1.703125 -5.390625 1.34375 -5.265625 1.03125 -4.984375 C 0.53125 -4.53125 0.203125 -3.609375 0.203125 -2.6875 C 0.203125 -1.8125 0.484375 -0.875 0.890625 -0.4375 C 1.203125 -0.078125 1.640625 0.109375 2.140625 0.109375 C 2.578125 0.109375 2.9375 -0.03125 3.25 -0.296875 C 3.75 -0.75 4.0625 -1.671875 4.0625 -2.640625 C 4.0625 -4.265625 3.296875 -5.390625 2.171875 -5.390625 Z M 2.140625 -5.1875 C 2.859375 -5.1875 3.25 -4.28125 3.25 -2.625 C 3.25 -0.953125 2.875 -0.09375 2.140625 -0.09375 C 1.40625 -0.09375 1.03125 -0.953125 1.03125 -2.609375 C 1.03125 -4.296875 1.40625 -5.1875 2.140625 -5.1875 Z M 2.140625 -5.1875 " />
</g>
<g id="glyph-10-8">
<path d="M 2.484375 -5.390625 L 0.953125 -4.671875 L 0.953125 -4.5625 C 1.046875 -4.59375 1.140625 -4.625 1.171875 -4.640625 C 1.328125 -4.703125 1.484375 -4.734375 1.5625 -4.734375 C 1.75 -4.734375 1.828125 -4.609375 1.828125 -4.359375 L 1.828125 -0.75 C 1.828125 -0.484375 1.75 -0.296875 1.609375 -0.21875 C 1.484375 -0.15625 1.375 -0.125 1.015625 -0.125 L 1.015625 0 L 3.375 0 L 3.375 -0.125 C 2.6875 -0.125 2.5625 -0.203125 2.5625 -0.59375 L 2.5625 -5.375 Z M 2.484375 -5.390625 " />
</g>
<g id="glyph-10-9">
<path d="M 0.5 0.171875 C 1.46875 0.078125 1.9375 -0.078125 2.515625 -0.46875 C 3.40625 -1.078125 3.921875 -2.0625 3.921875 -3.140625 C 3.921875 -4.46875 3.140625 -5.390625 2.03125 -5.390625 C 1.015625 -5.390625 0.25 -4.59375 0.25 -3.515625 C 0.25 -2.53125 0.875 -1.890625 1.796875 -1.890625 C 2.265625 -1.890625 2.625 -2.015625 3.078125 -2.34375 C 2.71875 -1.046875 1.78125 -0.1875 0.484375 0.015625 Z M 3.09375 -2.828125 C 3.09375 -2.671875 3.0625 -2.609375 2.96875 -2.53125 C 2.71875 -2.34375 2.40625 -2.234375 2.109375 -2.234375 C 1.453125 -2.234375 1.046875 -2.828125 1.046875 -3.78125 C 1.046875 -4.234375 1.171875 -4.71875 1.359375 -4.921875 C 1.5 -5.09375 1.71875 -5.171875 1.96875 -5.171875 C 2.703125 -5.171875 3.09375 -4.484375 3.09375 -3.140625 Z M 3.09375 -2.828125 " />
</g>
<g id="glyph-10-10">
<path d="M 3.84375 -5.28125 L 0.671875 -5.28125 L 0.171875 -4.109375 L 0.3125 -4.046875 C 0.6875 -4.59375 0.84375 -4.6875 1.3125 -4.6875 L 3.15625 -4.6875 L 1.46875 0.0625 L 2.03125 0.0625 L 3.84375 -5.15625 Z M 3.84375 -5.28125 " />
</g>
<g id="glyph-10-11">
<path d="M 2.53125 -5.390625 L 1.953125 -5.390625 L 0 0.109375 L 0.578125 0.109375 Z M 2.53125 -5.390625 " />
</g>
<g id="glyph-10-12">
<path d="M 5.765625 -4.578125 L 5.765625 -0.953125 C 5.765625 -0.296875 5.65625 -0.1875 4.984375 -0.15625 L 4.984375 0 L 7.375 0 L 7.375 -0.15625 C 6.75 -0.1875 6.625 -0.296875 6.625 -0.875 L 6.625 -4.421875 C 6.625 -4.984375 6.75 -5.09375 7.375 -5.140625 L 7.375 -5.28125 L 5.671875 -5.28125 L 3.78125 -1.25 L 1.8125 -5.28125 L 0.125 -5.28125 L 0.125 -5.140625 C 0.828125 -5.09375 0.9375 -5 0.9375 -4.421875 L 0.9375 -1.171875 C 0.9375 -0.34375 0.8125 -0.203125 0.109375 -0.15625 L 0.109375 0 L 2.109375 0 L 2.109375 -0.15625 C 1.453125 -0.1875 1.3125 -0.375 1.3125 -1.171875 L 1.3125 -4.390625 L 3.453125 0 L 3.578125 0 Z M 5.765625 -4.578125 " />
</g>
<g id="glyph-10-13">
<path d="M 2.375 -4.421875 C 2.375 -5 2.46875 -5.09375 3.15625 -5.140625 L 3.15625 -5.28125 L 0.703125 -5.28125 L 0.703125 -5.140625 C 1.40625 -5.09375 1.5 -5 1.5 -4.421875 L 1.5 -0.71875 C 1.5 -0.359375 1.40625 -0.1875 1.171875 -0.1875 C 1.0625 -0.1875 1.015625 -0.25 0.953125 -0.453125 C 0.859375 -0.734375 0.71875 -0.859375 0.5 -0.859375 C 0.28125 -0.859375 0.078125 -0.671875 0.078125 -0.46875 C 0.078125 -0.125 0.4375 0.109375 0.9375 0.109375 C 1.859375 0.109375 2.375 -0.46875 2.375 -1.46875 Z M 2.375 -4.421875 " />
</g>
</g>
<clipPath id="clip-0">
<path clip-rule="nonzero" d="M 293.632812 320 L 311 320 L 311 365 L 293.632812 365 Z M 293.632812 320 " />
</clipPath>
<clipPath id="clip-1">
<path clip-rule="nonzero" d="M 309 319.601562 L 315 319.601562 L 315 328 L 309 328 Z M 309 319.601562 " />
</clipPath>
<clipPath id="clip-2">
<path clip-rule="nonzero" d="M 309 319.601562 L 316 319.601562 L 316 322 L 309 322 Z M 309 319.601562 " />
</clipPath>
<clipPath id="clip-3">
<path clip-rule="nonzero" d="M 374 334 L 387.023438 334 L 387.023438 346 L 374 346 Z M 374 334 " />
</clipPath>
<clipPath id="clip-4">
<path clip-rule="nonzero" d="M 336 380 L 338 380 L 338 387.234375 L 336 387.234375 Z M 336 380 " />
</clipPath>
<clipPath id="clip-5">
<path clip-rule="nonzero" d="M 329.507812 385.824219 L 361 385.824219 L 361 393 L 329.507812 393 Z M 329.507812 385.824219 " />
</clipPath>
<clipPath id="clip-6">
<path clip-rule="nonzero" d="M 329.507812 387 L 364.097656 387 L 364.097656 394.324219 L 329.507812 394.324219 Z M 329.507812 387 " />
</clipPath>
</defs>
<rect x="50" y="50" width="500" height="185" fill="white" /><g clip-path="url(#diagram-clip)"><path fill="none" stroke-width="8" stroke-linecap="butt" stroke-linejoin="miter" stroke="rgb(0%, 0%, 0%)" stroke-opacity="1" stroke-miterlimit="10" d="M 1337.367379 5210.016707 L 3644.264969 5210.016707 " transform="matrix(0.119799, 0, 0, -0.119799, -0.000000000000013545, 841.293738)" />
<path fill-rule="nonzero" fill="rgb(0%, 0%, 0%)" fill-opacity="1" d="M 436.578125 217.140625 L 430.011719 219.527344 C 430.429688 217.964844 430.429688 216.316406 430.011719 214.75 L 436.578125 217.140625 " />
<path fill="none" stroke-width="8" stroke-linecap="butt" stroke-linejoin="miter" stroke="rgb(0%, 0%, 0%)" stroke-opacity="1" stroke-miterlimit="10" d="M 3644.264969 5210.016707 L 3589.452959 5190.09396 C 3592.941886 5203.136675 3592.941886 5216.896739 3589.452959 5229.972061 Z M 3644.264969 5210.016707 " transform="matrix(0.119799, 0, 0, -0.119799, -0.000000000000013545, 841.293738)" />
<path fill="none" stroke-width="8" stroke-linecap="butt" stroke-linejoin="miter" stroke="rgb(0%, 0%, 0%)" stroke-opacity="1" stroke-miterlimit="10" d="M 1341.541047 5210.016707 L 1341.541047 6272.834937 " transform="matrix(0.119799, 0, 0, -0.119799, -0.000000000000013545, 841.293738)" />
<path fill-rule="nonzero" fill="rgb(0%, 0%, 0%)" fill-opacity="1" d="M 160.714844 89.816406 L 163.105469 96.382812 C 161.539062 95.964844 159.890625 95.964844 158.324219 96.382812 L 160.714844 89.816406 " />
<path fill="none" stroke-width="8" stroke-linecap="butt" stroke-linejoin="miter" stroke="rgb(0%, 0%, 0%)" stroke-opacity="1" stroke-miterlimit="10" d="M 1341.541047 6272.834937 L 1361.496401 6218.022927 C 1348.421079 6221.511854 1334.661015 6221.511854 1321.585694 6218.022927 Z M 1341.541047 6272.834937 " transform="matrix(0.119799, 0, 0, -0.119799, -0.000000000000013545, 841.293738)" />
<path fill-rule="nonzero" fill="rgb(80.000305%, 80.000305%, 80.000305%)" fill-opacity="1" d="M 288.035156 174.699219 L 288.660156 174.386719 L 289.289062 174.078125 L 289.921875 173.765625 L 290.558594 173.457031 L 291.199219 173.144531 L 291.847656 172.832031 L 292.496094 172.523438 L 293.152344 172.214844 L 293.8125 171.902344 L 294.476562 171.589844 L 295.820312 170.972656 L 297.179688 170.347656 L 297.867188 170.039062 L 298.558594 169.726562 L 299.257812 169.417969 L 299.957031 169.105469 L 300.664062 168.796875 L 301.371094 168.484375 L 302.089844 168.175781 L 302.808594 167.863281 L 303.53125 167.554688 L 304.257812 167.242188 L 304.992188 166.929688 L 305.730469 166.621094 L 306.472656 166.308594 L 307.21875 166 L 307.96875 165.6875 L 308.726562 165.378906 L 309.484375 165.066406 L 310.25 164.757812 L 311.019531 164.445312 L 311.792969 164.136719 L 312.570312 163.824219 L 313.351562 163.511719 L 314.140625 163.203125 L 314.933594 162.894531 L 315.730469 162.582031 L 316.53125 162.269531 L 317.335938 161.960938 L 318.144531 161.652344 L 318.960938 161.339844 L 319.78125 161.027344 L 320.601562 160.71875 L 321.433594 160.40625 L 322.265625 160.097656 L 323.101562 159.785156 L 323.945312 159.476562 L 324.789062 159.164062 L 325.640625 158.855469 L 326.496094 158.542969 L 327.355469 158.234375 L 329.089844 157.609375 L 329.964844 157.300781 L 330.84375 156.988281 L 331.726562 156.679688 L 332.613281 156.367188 L 333.507812 156.058594 L 334.402344 155.746094 L 335.304688 155.4375 L 336.210938 155.125 L 337.121094 154.816406 L 338.035156 154.503906 L 338.953125 154.191406 L 340.804688 153.574219 L 341.738281 153.261719 L 342.675781 152.949219 L 343.617188 152.640625 L 344.566406 152.328125 L 345.515625 152.019531 L 346.472656 151.707031 L 347.433594 151.398438 L 348.398438 151.085938 L 349.367188 150.777344 L 350.339844 150.464844 L 351.316406 150.15625 L 352.300781 149.84375 L 353.289062 149.53125 L 354.28125 149.222656 L 355.277344 148.914062 L 356.277344 148.601562 L 357.285156 148.289062 L 358.296875 147.980469 L 359.308594 147.667969 L 360.328125 147.359375 L 361.355469 147.046875 L 362.382812 146.738281 L 363.414062 146.425781 L 364.453125 146.113281 L 366.539062 145.496094 L 368.648438 144.871094 L 369.707031 144.5625 L 370.773438 144.25 L 371.84375 143.941406 L 372.917969 143.628906 L 372.917969 174.699219 L 288.035156 174.699219 " />
<path fill="none" stroke-width="6" stroke-linecap="butt" stroke-linejoin="miter" stroke="rgb(0%, 0%, 0%)" stroke-opacity="1" stroke-miterlimit="10" d="M 2050.053927 5210.016707 L 2050.216961 5217.124986 L 2050.640849 5224.200659 L 2051.358199 5231.276332 L 2052.336402 5238.384612 L 2053.608067 5245.460285 L 2055.173193 5252.535957 L 2057.03178 5259.644237 L 2059.151221 5266.71991 L 2061.564123 5273.795583 L 2064.23788 5280.871256 L 2067.205097 5287.979535 L 2070.465776 5295.055208 L 2074.019916 5302.130881 L 2077.83491 5309.23916 L 2081.975972 5316.314833 L 2086.345281 5323.390506 L 2091.040659 5330.466179 L 2095.99689 5337.574459 L 2101.213976 5344.650131 L 2106.75713 5351.725804 L 2112.561138 5358.834084 L 2118.658608 5365.909757 L 2125.049538 5372.985429 L 2131.701322 5380.093709 L 2138.646568 5387.169382 L 2145.885275 5394.245055 L 2153.384836 5401.320728 L 2161.177858 5408.429007 L 2169.264341 5415.50468 L 2177.611679 5422.580353 L 2186.252477 5429.688632 L 2195.186737 5436.764305 L 2204.381851 5443.839978 L 2213.903033 5450.915651 L 2223.652462 5458.023931 L 2233.72796 5465.099603 L 2244.064311 5472.175276 L 2254.694124 5479.283556 L 2265.617398 5486.359229 L 2276.801526 5493.434902 L 2288.279115 5500.543181 L 2300.050165 5507.618854 L 2312.082069 5514.694527 L 2324.407435 5521.7702 L 2337.026262 5528.878479 L 2349.905943 5535.954152 L 2363.111691 5543.029825 L 2376.545688 5550.138105 L 2390.305752 5557.213777 L 2404.32667 5564.28945 L 2418.64105 5571.365123 L 2433.248891 5578.473403 L 2448.117586 5585.549075 L 2463.279742 5592.624748 L 2478.735359 5599.733028 L 2494.45183 5606.808701 L 2510.461763 5613.884374 L 2526.765157 5620.992653 L 2543.362011 5628.068326 L 2560.21972 5635.143999 L 2577.37089 5642.219672 L 2594.782915 5649.327951 L 2612.4884 5656.403624 L 2630.487347 5663.479297 L 2648.779754 5670.55497 L 2667.333016 5677.663249 L 2686.179739 5684.738922 L 2705.319923 5691.814595 L 2724.720962 5698.922875 L 2744.415461 5705.998548 L 2764.403422 5713.07422 L 2784.684844 5720.1825 L 2805.22712 5727.258173 L 2826.062857 5734.333846 L 2847.159448 5741.442125 L 2868.5495 5748.517798 L 2890.233014 5755.593471 L 2912.209988 5762.669144 L 2934.447817 5769.777423 L 2956.979107 5776.853096 L 2979.803858 5783.928769 L 3002.889464 5791.004442 L 3026.26853 5798.112721 L 3049.941058 5805.188394 L 3073.87444 5812.264067 L 3098.133889 5819.372347 L 3122.654193 5826.44802 L 3147.435352 5833.556299 L 3172.509971 5840.631972 L 3197.878051 5847.707645 L 3223.539593 5854.783318 L 3249.461989 5861.891597 L 3275.677846 5868.96727 L 3302.187164 5876.042943 L 3328.957336 5883.118616 L 3356.02097 5890.194289 L 3383.378064 5897.302568 L 3410.996013 5904.378241 L 3438.94003 5911.453914 L 3467.1449 5918.562194 " transform="matrix(0.119799, 0, 0, -0.119799, -0.000000000000013545, 841.293738)" />
<path fill="none" stroke-width="6" stroke-linecap="butt" stroke-linejoin="miter" stroke="rgb(0%, 0%, 0%)" stroke-opacity="1" stroke-miterlimit="10" d="M 1270.686499 5564.28945 L 3467.1449 5564.28945 " transform="matrix(0.119799, 0, 0, -0.119799, -0.000000000000013545, 841.293738)" />
<path fill="none" stroke-width="6" stroke-linecap="butt" stroke-linejoin="miter" stroke="rgb(0%, 0%, 0%)" stroke-opacity="1" stroke-miterlimit="10" d="M 3112.872157 5139.194765 L 3112.872157 6095.682262 " transform="matrix(0.119799, 0, 0, -0.119799, -0.000000000000013545, 841.293738)" />
<g fill="rgb(0%, 0%, 0%)" fill-opacity="1">
<use xlink:href="#glyph-1-0" x="440.260141" y="219.5386" />
</g>
<g fill="rgb(0%, 0%, 0%)" fill-opacity="1">
<use xlink:href="#glyph-1-1" x="158.134454" y="83.926497" />
</g>
<g fill="rgb(0%, 0%, 0%)" fill-opacity="1">
<use xlink:href="#glyph-2-0" x="152.264319" y="172.098324" />
</g>
<g fill="rgb(0%, 0%, 0%)" fill-opacity="1">
<use xlink:href="#glyph-2-1" x="375.569254" y="227.445313" />
</g>
<g fill="rgb(0%, 0%, 0%)" fill-opacity="1">
<use xlink:href="#glyph-1-1" x="419.056274" y="135.679526" />
</g>
<g fill="rgb(0%, 0%, 0%)" fill-opacity="1">
<use xlink:href="#glyph-3-0" x="424.327416" y="131.60637" />
</g>
<g fill="rgb(0%, 0%, 0%)" fill-opacity="1">
<use xlink:href="#glyph-2-2" x="432.11433" y="135.679526" />
</g>
<g fill="rgb(0%, 0%, 0%)" fill-opacity="1">
<use xlink:href="#glyph-1-0" x="441.937822" y="135.679526" />
</g>
<g fill="rgb(0%, 0%, 0%)" fill-opacity="1">
<use xlink:href="#glyph-4-0" x="449.844035" y="135.679526" />
</g>
<g fill="rgb(0%, 0%, 0%)" fill-opacity="1">
<use xlink:href="#glyph-2-3" x="459.308131" y="135.679526" />
</g>
<g fill="rgb(0%, 0%, 0%)" fill-opacity="1">
<use xlink:href="#glyph-2-4" x="152.264419" y="227.085917" />
</g>
</g></svg>